<svg width="24" height="24" viewBox="0 0 24 24" fill="none" xmlns="http://www.w3.org/2000/svg">
<path d="M6.49023 2.85986H16.1299C17.9824 2.85986 19.4913 4.37519 19.5 6.22217V20.3101C19.5 21.1058 19.22 21.5464 18.9033 21.7329C18.5868 21.9191 18.0671 21.9495 17.373 21.563L12.4932 18.853C12.1446 18.656 11.7175 18.5728 11.3184 18.5728C10.9674 18.5728 10.595 18.6369 10.2715 18.7847L10.1367 18.853L5.25879 21.562C4.56514 21.9439 4.04457 21.9123 3.72656 21.7251C3.40897 21.5381 3.12993 21.0995 3.12988 20.3101V6.22021C3.12988 4.37551 4.63722 2.85986 6.49023 2.85986ZM11.9043 7.52783C10.8915 7.50402 9.88905 7.5202 9.19727 7.62646C9.02205 7.65338 8.85599 7.68738 8.70898 7.73193C8.56786 7.77473 8.41338 7.83704 8.2832 7.93311C8.22913 7.97302 8.17018 8.02515 8.11914 8.09131C8.05499 8.10767 7.97418 8.13238 7.91309 8.1665C7.74957 8.36886 7.74676 8.76585 7.82129 8.88916C7.85559 8.92673 7.91216 8.97523 7.93164 8.98877C7.94303 8.99607 7.96215 9.00706 7.96973 9.01123C7.98359 9.01871 7.9948 9.02395 7.99902 9.02588C8.00856 9.03024 8.01638 9.03378 8.01855 9.03467C8.03062 9.03959 8.04437 9.04486 8.0459 9.04541C8.05818 9.04987 8.07884 9.05675 8.10742 9.06689C8.15036 9.08214 8.21463 9.10429 8.30273 9.13525C8.33365 9.14629 8.36669 9.15796 8.40137 9.17041L8.44531 9.18604L8.49121 9.19385H8.49219H8.49512C8.49716 9.19417 8.50014 9.19521 8.50391 9.1958C8.51139 9.19697 8.52219 9.19856 8.53613 9.20068C8.56435 9.20498 8.60568 9.21071 8.6582 9.21826C8.76342 9.2334 8.91526 9.25473 9.10156 9.27783C9.47365 9.32397 9.98746 9.37947 10.5537 9.4165C11.119 9.45347 11.7439 9.47224 12.3359 9.44385C12.9202 9.41582 13.5066 9.33933 13.9785 9.16943C14.1116 9.12167 14.2542 9.19171 14.2998 9.31885C14.3474 9.45175 14.2783 9.59343 14.1514 9.63916H14.1504C13.234 9.96981 12.2709 10.1401 11.3096 10.1401L11.0889 11.0884C12.278 11.675 13.3091 11.8609 14.1797 11.7661C15.0537 11.6708 15.7334 11.2954 16.2139 10.8179C16.6873 10.3472 16.9719 9.77296 17.0625 9.26318C17.1074 9.01022 17.1102 8.74329 17.0361 8.50244C16.9601 8.25517 16.7884 8.00061 16.4795 7.88916H16.4785C16.4 7.86101 16.2935 7.84434 16.2227 7.8335C16.1315 7.81955 16.0146 7.80429 15.8789 7.78857C15.6065 7.75703 15.2436 7.72154 14.8262 7.68701C13.9915 7.61798 12.9261 7.55186 11.9043 7.52783ZM15.1064 8.71533C15.3623 8.73864 15.5851 8.76105 15.7637 8.78174C15.8933 8.79676 15.9969 8.81039 16.0713 8.82178C16.0753 8.82239 16.0793 8.82217 16.083 8.82275C16.093 8.8743 16.1005 8.96235 16.0781 9.08838C16.0253 9.38559 15.8437 9.77593 15.5088 10.1089C15.1805 10.4351 14.7081 10.7026 14.0713 10.772C13.9959 10.7802 13.9178 10.7842 13.8369 10.7866C13.9258 10.7616 14.0152 10.7381 14.1035 10.7104L14.4893 10.5806C15.1419 10.3461 15.4724 9.62781 15.2402 8.98096C15.2058 8.88499 15.16 8.79662 15.1064 8.71533Z" fill="#FDFDFD" stroke="#FDFDFD"/>
</svg>
