<svg width="24" height="24" viewBox="0 0 24 24" fill="none" xmlns="http://www.w3.org/2000/svg">
<path d="M6.49023 2.86035H16.1299C17.9824 2.86035 19.4913 4.37568 19.5 6.22266V20.3105C19.5 21.1063 19.22 21.5469 18.9033 21.7334C18.5868 21.9196 18.0671 21.95 17.373 21.5635L12.4932 18.8535C12.1446 18.6565 11.7175 18.5732 11.3184 18.5732C10.9674 18.5733 10.595 18.6374 10.2715 18.7852L10.1367 18.8535L5.25879 21.5625C4.56514 21.9444 4.04457 21.9128 3.72656 21.7256C3.40897 21.5385 3.12993 21.0999 3.12988 20.3105V6.2207C3.12988 4.376 4.63722 2.86035 6.49023 2.86035ZM11.9043 7.52832C10.8915 7.5045 9.88905 7.52069 9.19727 7.62695C9.02205 7.65387 8.85599 7.68787 8.70898 7.73242C8.56786 7.77522 8.41338 7.83753 8.2832 7.93359C8.22913 7.97351 8.17018 8.02564 8.11914 8.0918C8.05499 8.10815 7.97418 8.13287 7.91309 8.16699C7.74957 8.36935 7.74676 8.76634 7.82129 8.88965C7.85559 8.92722 7.91216 8.97571 7.93164 8.98926C7.94303 8.99655 7.96215 9.00754 7.96973 9.01172C7.98359 9.0192 7.9948 9.02443 7.99902 9.02637C8.00856 9.03073 8.01638 9.03427 8.01855 9.03516C8.03062 9.04008 8.04437 9.04535 8.0459 9.0459C8.05818 9.05036 8.07884 9.05723 8.10742 9.06738C8.15036 9.08263 8.21463 9.10478 8.30273 9.13574C8.33365 9.14677 8.36669 9.15845 8.40137 9.1709L8.44531 9.18652L8.49121 9.19434H8.49219H8.49512C8.49716 9.19466 8.50014 9.1957 8.50391 9.19629C8.51139 9.19746 8.52219 9.19905 8.53613 9.20117C8.56435 9.20547 8.60568 9.2112 8.6582 9.21875C8.76342 9.23388 8.91526 9.25522 9.10156 9.27832C9.47365 9.32445 9.98746 9.37996 10.5537 9.41699C11.119 9.45396 11.7439 9.47273 12.3359 9.44434C12.9202 9.41631 13.5066 9.33982 13.9785 9.16992C14.1116 9.12216 14.2542 9.19219 14.2998 9.31934C14.3474 9.45224 14.2783 9.59391 14.1514 9.63965H14.1504C13.234 9.9703 12.2709 10.1406 11.3096 10.1406L11.0889 11.0889C12.278 11.6755 13.3091 11.8614 14.1797 11.7666C15.0537 11.6713 15.7334 11.2959 16.2139 10.8184C16.6873 10.3477 16.9719 9.77345 17.0625 9.26367C17.1074 9.0107 17.1102 8.74378 17.0361 8.50293C16.9601 8.25566 16.7884 8.0011 16.4795 7.88965H16.4785C16.4 7.8615 16.2935 7.84482 16.2227 7.83398C16.1315 7.82003 16.0146 7.80478 15.8789 7.78906C15.6065 7.75752 15.2436 7.72203 14.8262 7.6875C13.9915 7.61847 12.9261 7.55235 11.9043 7.52832ZM15.1064 8.71582C15.3623 8.73913 15.5851 8.76154 15.7637 8.78223C15.8933 8.79724 15.9969 8.81088 16.0713 8.82227C16.0753 8.82288 16.0793 8.82266 16.083 8.82324C16.093 8.87479 16.1005 8.96284 16.0781 9.08887C16.0253 9.38608 15.8437 9.77642 15.5088 10.1094C15.1805 10.4356 14.7081 10.703 14.0713 10.7725C13.9959 10.7807 13.9178 10.7847 13.8369 10.7871C13.9258 10.7621 14.0152 10.7386 14.1035 10.7109L14.4893 10.5811C15.1419 10.3466 15.4724 9.6283 15.2402 8.98145C15.2058 8.88548 15.16 8.79711 15.1064 8.71582Z" fill="#FDFDFD" stroke="#FDFDFD"/>
</svg>
